# xmcd
#
# Track frame offsets: 
#        151
#        18058
#        39655
#        59076
#        84783
#        107662
#        124971
#        150100
#        172957
#        189806
#        210055
#        234628
#        253967
#        272790
#        288075
#
# Disc length: 4091 seconds
#
# Revision: 1
# Processed by: cddbd v1.5.1PL0 Copyright (c) Steve Scherf et al.
# Submitted via: ExactAudioCopy v0.95a5
#
DISCID=b90ff90f
DTITLE=朴树 - COLORFUL DAYS
DYEAR=1900
DGENRE=Pop
TTITLE0=COLORFUL DAYS 
TTITLE1=冲出你的窗口
TTITLE2=九月
TTITLE3=火车开往冬天
TTITLE4=卓越2000年
TTITLE5=白桦林
TTITLE6=召唤
TTITLE7=那些花儿
TTITLE8=NEW BOY
TTITLE9=旅途
TTITLE10=我去2000年
TTITLE11=妈妈，我......
TTITLE12=活者
TTITLE13=在希望的田野上
TTITLE14=别，千万别
EXTD=我爱你。婷婷\n
EXTT0=
EXTT1=
EXTT2=
EXTT3=
EXTT4=
EXTT5=
EXTT6=
EXTT7=
EXTT8=
EXTT9=
EXTT10=
EXTT11=
EXTT12=
EXTT13=
EXTT14=
PLAYORDER=
